<svg width="94" height="92" viewBox="0 0 94 92" fill="none" xmlns="http://www.w3.org/2000/svg">
<g clip-path="url(#clip0_1030_133)">
<path d="M47.2537 2H46C21.6995 2 2 21.6995 2 46C2 70.3005 21.6995 90 46 90H47.2537C71.5542 90 91.2537 70.3005 91.2537 46C91.2537 21.6995 71.5542 2 47.2537 2Z" fill="#EBFF85" stroke="black" stroke-width="4"/>
<path d="M20.5195 46.1511L28.8271 42.5166V33.1706L38.1731 38.3628L46.4806 34.7281L28.8271 24.3438L20.5195 28.4976V46.1511Z" fill="black"/>
<path d="M73.999 28.5018L66.7299 24.8672L57.3839 30.0594L63.6146 33.1748L20 53.4244V63.8088L26.7499 66.9242L36.6151 62.7704L30.3844 59.1359L73.999 39.4054V28.5018Z" fill="black"/>
<path d="M74.0001 62.7713V46.1562L66.2118 49.2715V58.6175L56.3466 53.9445L48.0391 58.6175L66.2118 67.4443L74.0001 62.7713Z" fill="black"/>
<path d="M47.5193 67.9597L42.8463 65.8828L34.0195 70.0366L47.5193 77.3057L61.019 70.0366L53.2307 65.8828L47.5193 67.9597Z" fill="black"/>
<path d="M47.5193 15L34.0195 21.7499L42.3271 26.9421L47.5193 24.346L51.6731 26.9421L61.019 22.7883L47.5193 15Z" fill="black"/>
</g>
<defs>
<clipPath id="clip0_1030_133">
<rect width="94" height="92" fill="white"/>
</clipPath>
</defs>
</svg>
