<svg width="94" height="92" viewBox="0 0 94 92" fill="none" xmlns="http://www.w3.org/2000/svg">
<g clip-path="url(#clip0_1030_140)">
<path d="M47.2537 2H46C21.6995 2 2 21.6995 2 46C2 70.3005 21.6995 90 46 90H47.2537C71.5542 90 91.2537 70.3005 91.2537 46C91.2537 21.6995 71.5542 2 47.2537 2Z" fill="#EBFF85" stroke="black" stroke-width="4"/>
<path d="M57.4286 67.1038L44.9252 48.9375L43.1447 46.3516L28.636 25.2718H34.877L46.6103 42.3195L48.3907 44.9055L63.6695 67.1038H57.4286ZM66.2496 65.3293L50.5015 42.4505L48.7211 39.8629L37.4559 23.4969L36.5222 22.1406H22.6797L26.0556 27.0463L41.034 48.8094L42.8145 51.3941L54.8493 68.8803L55.7831 70.235H69.6257L66.2496 65.3293Z" fill="black"/>
<path d="M43.1441 46.3516L44.9246 48.9375L42.8139 51.3941L26.6186 70.235H22.625L41.0333 48.8094L43.1441 46.3516Z" fill="black"/>
<path d="M67.9582 22.1406L50.5006 42.4505L48.3898 44.9055L46.6094 42.3195L48.7202 39.8629L60.5457 26.0987L63.9645 22.1406H67.9582Z" fill="black"/>
</g>
<defs>
<clipPath id="clip0_1030_140">
<rect width="94" height="92" fill="white"/>
</clipPath>
</defs>
</svg>
