<svg width="94" height="92" viewBox="0 0 94 92" fill="none" xmlns="http://www.w3.org/2000/svg">
<g clip-path="url(#clip0_1030_145)">
<path d="M47.2537 2H46C21.6995 2 2 21.6995 2 46C2 70.3005 21.6995 90 46 90H47.2537C71.5542 90 91.2537 70.3005 91.2537 46C91.2537 21.6995 71.5542 2 47.2537 2Z" fill="#EBFF85" stroke="black" stroke-width="4"/>
<path d="M69.8918 22.9939C69.6947 22.4053 69.4595 22.2504 69.092 22.1032C68.2884 21.8012 66.9272 22.2581 66.9272 22.2581C66.9272 22.2581 18.7372 39.8229 15.9841 41.7668C15.3913 42.185 15.1927 42.4328 15.0942 42.7193C14.6183 44.0979 16.101 44.7097 16.101 44.7097L28.5218 48.8143C28.5218 48.8143 28.9847 48.884 29.1497 48.7756C31.9754 46.9634 57.5787 30.5758 59.0553 30.0259C59.2883 29.9562 59.4609 30.0337 59.4151 30.1963C58.8238 32.3029 36.5862 52.3381 36.5862 52.3381C36.5862 52.3381 36.5014 52.4465 36.448 52.5705L36.4189 52.555L35.2601 65.047C35.2601 65.047 34.7743 68.8728 38.5487 65.047C41.2116 62.3441 43.7882 60.0827 45.0776 58.9907C49.3485 61.9801 53.9448 65.2871 55.9287 67.0141C56.9248 67.8815 57.7582 68.0209 58.4442 67.9977C60.3272 67.928 60.8527 65.8292 60.8527 65.8292C60.8527 65.8292 69.6344 29.995 69.9277 25.1933C69.9567 24.7209 69.9965 24.4266 69.9995 24.1013C70.0049 23.6521 69.9636 23.203 69.8918 22.9939Z" fill="black"/>
</g>
<defs>
<clipPath id="clip0_1030_145">
<rect width="94" height="92" fill="white"/>
</clipPath>
</defs>
</svg>
